<svg data-name="logo rigoni" xmlns="http://www.w3.org/2000/svg" width="87.801" height="47.897" viewBox="0 0 87.801 47.897"><g data-name="Group 1" fill="#9f1621"><path data-name="Path 1" d="M13.8 0c-1.272 0-1.272.828-1.272 1.273v17.5c0 1.272.827 1.272 1.272 1.272h2.168c.444 0 1.272 0 1.272-1.272v-6.921h.53a.41.41 0 0 1 .315.221l3.3 7.213a1.222 1.222 0 0 0 1.329.758h2.887a.96.96 0 0 0 .846-.432 1.028 1.028 0 0 0 .007-1c0 .007-3.468-7.493-3.468-7.493a.956.956 0 0 1-.1-.272l.013-.005c1.414-.5 3.032-2.133 3.032-5.095 0-2.776-1.837-5.743-6.992-5.743zm3.61 4.156h1.221c2.035 0 2.254 1.285 2.254 1.837 0 1.117-.884 1.838-2.254 1.838h-1.3l-.082-.008c0-.044-.007-.107-.007-.107V4.327a.364.364 0 0 1 .023-.165s.037-.006.144-.006z"/><path data-name="Path 2" d="M28.351 4a.952.952 0 0 0-1.078 1.077v13.887a.953.953 0 0 0 1.078 1.078h2.221a.952.952 0 0 0 1.077-1.078V5.077A.952.952 0 0 0 30.572 4z"/><path data-name="Path 3" d="M45.534 9.659v4.721c0 3.85 1.929 5.883 5.579 5.883s5.576-2.033 5.576-5.883V9.659c0-3.848-1.927-5.882-5.576-5.882s-5.579 2.034-5.579 5.882zm4.379 5.36v-6c0-1.017.4-1.532 1.2-1.532s1.2.516 1.2 1.532v6c0 1.018-.4 1.534-1.2 1.534s-1.2-.516-1.2-1.534z"/><path data-name="Path 4" d="M62.627 4.714A.819.819 0 0 0 61.821 4h-2.47a.952.952 0 0 0-1.077 1.077v13.887a.952.952 0 0 0 1.077 1.078h2.221a.953.953 0 0 0 1.078-1.078V9.733a2.177 2.177 0 0 1 .356-1.472 1.039 1.039 0 0 1 1.709.76v9.943a.952.952 0 0 0 1.077 1.078h2.223a.952.952 0 0 0 1.077-1.078V8.215c0-3.273-1.991-4.438-3.855-4.438a3.651 3.651 0 0 0-2.61.937z"/><path data-name="Path 5" d="M71.878 4a.952.952 0 0 0-1.077 1.077v13.887a.952.952 0 0 0 1.077 1.078h2.22a.953.953 0 0 0 1.078-1.078V5.077A.953.953 0 0 0 74.098 4z"/><path data-name="Path 6" d="M7.63 23.754a.952.952 0 0 0-1.076 1.078v3.484a1.951 1.951 0 0 1-.34-.215 2.6 2.6 0 0 0-1.916-.568c-4.3 0-4.3 4.4-4.3 6.05v4.938c0 1.5 0 5.49 3.939 5.49a3.489 3.489 0 0 0 2.531-.907l.056-.044v.041c0 .162.058.689.8.689h2.528a.952.952 0 0 0 1.077-1.078v-17.88a.952.952 0 0 0-1.077-1.078zm-3.2 14.74v-5.439c0-1.373.606-1.532 1.059-1.532s1.062.158 1.062 1.532v5.439c0 1.372-.606 1.531-1.062 1.531s-1.056-.158-1.056-1.531z"/><path data-name="Path 7" d="M13.602 27.758a.953.953 0 0 0-1.078 1.079v13.879a.953.953 0 0 0 1.078 1.078h2.221a.952.952 0 0 0 1.077-1.078V28.833a.953.953 0 0 0-1.077-1.079z"/><path data-name="Path 8" d="M25.688 23.754a1.1 1.1 0 0 0-1.211 1.011l-4.275 17.822a1.112 1.112 0 0 0 .112.931.786.786 0 0 0 .651.273h2.694a1.04 1.04 0 0 0 1.1-.936l.525-2.181a.247.247 0 0 1 .264-.185h3.8c.161 0 .21 0 .267.2l.552 2.1a1.126 1.126 0 0 0 1.152 1h2.722a.9.9 0 0 0 .755-.3 1.037 1.037 0 0 0 .094-.895l-4.5-17.834c-.248-.928-.733-1.005-1.208-1.005zm.705 12.379c0-.014.733-3.324.993-4.51l1.12 4.5s0 .026.008.045h-2.127z"/><path data-name="Path 9" d="M35.133 32.027c0 2.68 2.062 4.141 3.294 5.015l.083.059.5.337c.787.521 1.68 1.111 1.68 1.833 0 .613-.475.949-1.338.949a11.747 11.747 0 0 1-2.637-.431l-.088-.027a2.875 2.875 0 0 0-.774-.181.731.731 0 0 0-.542.2.939.939 0 0 0-.2.71v1.858c0 1.117 1.487 1.66 4.548 1.66 3.455 0 5.688-1.883 5.688-4.8 0-2.6-1.53-3.918-3.1-5.044l-.7-.475c-.783-.514-1.758-1.153-1.758-1.752 0-.145.067-.617.923-.617.918 0 1.027.1 1.123.178.26.228.54.377 2.013.377.377 0 .827-.153.827-.883v-1.75a1.088 1.088 0 0 0-.346-.813c-.6-.6-1.957-.9-4.035-.9-3.806.003-5.161 2.325-5.161 4.497z"/><path data-name="Path 10" d="M47.431 27.758a.953.953 0 0 0-1.077 1.079v13.879a.953.953 0 0 0 1.077 1.078h2.22a.953.953 0 0 0 1.079-1.078V28.833a.953.953 0 0 0-1.079-1.079z"/><path data-name="Path 11" d="M52.907 29.305v1.721a.806.806 0 0 0 .827.8 1.9 1.9 0 0 0 .656-.16l.751-.239a6.826 6.826 0 0 1 1.814-.268c.552 0 1.478.095 1.478.725 0 .134-.01.137-.083.165l-.691.248c-2.392.872-5.669 2.066-5.669 6.553 0 3.807 2.2 5.157 4.077 5.157a4.058 4.058 0 0 0 2.454-.783.534.534 0 0 0 .145.352.894.894 0 0 0 .678.211h2.331a1.155 1.155 0 0 0 .865-.292 1.224 1.224 0 0 0 .27-.919V32.219c0-2.183-.627-4.689-5.52-4.689-2.91.003-4.383.599-4.383 1.775zm3.627 9.326a2.575 2.575 0 0 1 1.5-2.439l.4-.258v3.39c0 .332-.4.7-.978.7-.804.001-.922-.872-.922-1.392z"/><path data-name="Path 12" d="M64.263 33.026V37.3c0 1.5 0 6.044 4.134 6.044a3.517 3.517 0 0 0 2.262-.663 1.62 1.62 0 0 1 .16-.1v.134c0 .526 0 1.5-2.338 1.5a10.812 10.812 0 0 1-2.6-.326 3.376 3.376 0 0 0-.679-.118.648.648 0 0 0-.633.689v2.193a.78.78 0 0 0 .222.606c.3.3 1.042.639 4.188.639 2.247 0 3.831-.49 4.839-1.5 1.383-1.383 1.38-3.427 1.377-5.231V28.833a.953.953 0 0 0-1.078-1.079h-2.524c-.742 0-.8.528-.8.689v.042l-.055-.045a3.491 3.491 0 0 0-2.532-.907c-3.943 0-3.943 3.992-3.943 5.493zm4.434 4.8v-4.773c0-1.373.605-1.532 1.061-1.532s1.06.158 1.06 1.532v4.773c0 1.372-.607 1.531-1.06 1.531s-1.065-.158-1.065-1.53z"/><path data-name="Path 13" d="M76.649 33.414v4.718c0 3.845 1.929 5.878 5.576 5.878s5.576-2.033 5.576-5.878v-4.718c0-3.847-1.927-5.881-5.576-5.881s-5.576 2.032-5.576 5.881zm4.377 5.356v-5.994c0-1.017.4-1.532 1.2-1.532s1.2.515 1.2 1.532v5.989c0 1.017-.4 1.532-1.2 1.532s-1.2-.511-1.2-1.532z"/><path data-name="Path 14" d="M33.106 9.27v4.276c0 1.5 0 6.05 4.132 6.05a3.511 3.511 0 0 0 2.261-.662c.058-.041.109-.074.161-.106v.135c0 .526 0 1.5-2.338 1.5a10.775 10.775 0 0 1-2.6-.326 3.288 3.288 0 0 0-.678-.118.647.647 0 0 0-.633.689v2.195a.78.78 0 0 0 .22.605c.3.3 1.042.64 4.189.64 2.247 0 3.83-.491 4.839-1.5 1.381-1.384 1.378-3.43 1.376-5.236V5.076a.953.953 0 0 0-1.078-1.077H40.43c-.743 0-.8.527-.8.688v.04l-.055-.044a3.489 3.489 0 0 0-2.533-.907c-3.936.001-3.936 3.992-3.936 5.494zm4.432 4.8V9.294c0-1.374.606-1.533 1.061-1.533s1.06.158 1.06 1.533v4.776c0 1.374-.606 1.534-1.06 1.534s-1.061-.156-1.061-1.53z"/></g></svg>